{"glyphs":{"0":{"ha":924,"x_min":133,"x_max":892,"o":"m 807 86 l 636 -7 l 285 -7 l 133 86 l 218 886 l 389 979 l 740 979 l 892 886 l 807 86 m 353 854 l 275 118 l 671 118 l 749 854 l 353 854 z "},"1":{"ha":792,"x_min":125,"x_max":749,"o":"m 196 681 l 211 821 l 490 972 l 601 972 l 513 125 l 749 125 l 736 0 l 125 0 l 138 125 l 374 125 l 446 817 l 196 681 z "},"2":{"ha":875,"x_min":125,"x_max":842,"o":"m 276 125 l 763 125 l 750 0 l 125 0 l 171 436 l 342 529 l 667 529 l 700 847 l 353 847 l 339 722 l 200 722 l 217 879 l 388 972 l 690 972 l 842 879 l 801 497 l 631 404 l 306 404 l 276 125 z "},"3":{"ha":904,"x_min":133,"x_max":872,"o":"m 617 -7 l 285 -7 l 133 86 l 150 243 l 289 243 l 275 118 l 651 118 l 686 440 l 401 440 l 414 565 l 699 565 l 729 854 l 353 854 l 340 729 l 201 729 l 218 886 l 389 979 l 721 979 l 872 886 l 839 574 l 711 504 l 710 501 l 824 432 l 788 86 l 617 -7 z "},"4":{"ha":867,"x_min":79,"x_max":833,"o":"m 696 225 l 672 0 l 536 0 l 560 225 l 79 225 l 92 344 l 646 972 l 774 972 l 708 346 l 833 346 l 821 225 l 696 225 m 236 346 l 572 346 l 617 774 l 614 774 l 236 349 l 236 346 z "},"5":{"ha":896,"x_min":133,"x_max":858,"o":"m 381 847 l 354 599 l 672 599 l 824 506 l 779 86 l 608 -7 l 285 -7 l 133 86 l 150 243 l 289 243 l 275 118 l 643 118 l 681 474 l 201 474 l 254 972 l 858 972 l 846 847 l 381 847 z "},"6":{"ha":882,"x_min":133,"x_max":850,"o":"m 353 854 l 317 513 l 422 569 l 656 569 l 807 476 l 765 86 l 594 -7 l 285 -7 l 133 86 l 218 886 l 389 979 l 699 979 l 850 886 l 833 729 l 694 729 l 707 854 l 353 854 m 310 444 l 275 118 l 629 118 l 664 444 l 310 444 z "},"7":{"ha":854,"x_min":158,"x_max":886,"o":"m 379 0 l 232 0 l 707 844 l 708 847 l 311 847 l 297 722 l 158 722 l 185 972 l 886 972 l 878 889 l 379 0 z "},"8":{"ha":896,"x_min":133,"x_max":864,"o":"m 275 118 l 643 118 l 678 440 l 310 440 l 275 118 m 322 565 l 690 565 l 721 854 l 353 854 l 322 565 m 608 -7 l 263 -7 l 133 86 l 169 432 l 297 501 l 299 504 l 185 574 l 218 886 l 389 979 l 713 979 l 864 886 l 831 574 l 703 504 l 701 501 l 815 432 l 779 86 l 608 -7 z "},"9":{"ha":882,"x_min":133,"x_max":850,"o":"m 629 118 l 665 460 l 561 403 l 328 403 l 176 496 l 218 886 l 389 979 l 699 979 l 850 886 l 765 86 l 594 -7 l 285 -7 l 133 86 l 150 243 l 289 243 l 275 118 l 629 118 m 672 528 l 707 854 l 353 854 l 318 528 l 672 528 z "}," ":{"ha":361,"x_min":0,"x_max":0,"o":""},"!":{"ha":486,"x_min":139,"x_max":440,"o":"m 139 0 l 160 208 l 368 208 l 347 0 l 139 0 m 226 372 l 257 1014 l 440 1014 l 338 372 l 226 372 z "},"\"":{"ha":597,"x_min":189,"x_max":606,"o":"m 189 608 l 203 1014 l 356 1014 l 286 608 l 189 608 m 439 608 l 453 1014 l 606 1014 l 536 608 l 439 608 z "},"#":{"ha":1050,"x_min":108,"x_max":1044,"o":"m 588 -28 l 640 239 l 396 239 l 343 -28 l 228 -28 l 281 239 l 108 239 l 119 344 l 301 344 l 358 639 l 150 639 l 161 744 l 379 744 l 429 1000 l 544 1000 l 494 744 l 739 744 l 789 1000 l 904 1000 l 854 744 l 1044 744 l 1033 639 l 833 639 l 776 344 l 1003 344 l 992 239 l 756 239 l 703 -28 l 588 -28 m 474 639 l 417 344 l 661 344 l 718 639 l 474 639 z "},"$":{"ha":896,"x_min":119,"x_max":864,"o":"m 365 -171 l 382 -7 l 271 -7 l 119 86 l 135 229 l 274 229 l 261 118 l 643 118 l 675 421 l 329 421 l 178 514 l 218 886 l 389 979 l 486 979 l 503 1143 l 642 1143 l 625 979 l 713 979 l 864 886 l 849 743 l 710 743 l 721 854 l 353 854 l 322 560 l 668 560 l 819 467 l 779 86 l 608 -7 l 521 -7 l 504 -171 l 365 -171 z "},"%":{"ha":1376,"x_min":172,"x_max":1306,"o":"m 651 589 l 481 496 l 324 496 l 172 589 l 204 893 l 375 986 l 532 986 l 683 893 l 651 589 m 329 874 l 301 608 l 528 608 l 556 874 l 329 874 m 1085 986 l 1210 986 l 392 -14 l 267 -14 l 1085 986 m 826 383 l 997 476 l 1154 476 l 1306 383 l 1272 79 l 1101 -14 l 944 -14 l 793 79 l 826 383 m 1149 99 l 1176 364 l 950 364 l 922 99 l 1149 99 z "},"&":{"ha":910,"x_min":133,"x_max":926,"o":"m 926 565 l 914 440 l 811 440 l 774 86 l 603 -7 l 285 -7 l 133 86 l 169 432 l 297 501 l 299 504 l 185 574 l 218 886 l 389 979 l 651 979 l 803 886 l 786 729 l 647 729 l 660 854 l 353 854 l 322 565 l 565 565 l 553 440 l 310 440 l 275 118 l 638 118 l 675 472 l 846 565 l 926 565 z "},"'":{"ha":347,"x_min":189,"x_max":356,"o":"m 189 608 l 203 1014 l 356 1014 l 286 608 l 189 608 z "},"(":{"ha":504,"x_min":106,"x_max":526,"o":"m 332 917 l 217 -181 l 401 -181 l 390 -278 l 256 -278 l 106 -185 l 221 921 l 392 1014 l 526 1014 l 517 917 l 332 917 z "},")":{"ha":504,"x_min":53,"x_max":475,"o":"m 249 -181 l 364 917 l 179 917 l 189 1014 l 324 1014 l 475 921 l 360 -185 l 188 -278 l 53 -278 l 64 -181 l 249 -181 z "},"*":{"ha":875,"x_min":185,"x_max":838,"o":"m 467 728 l 479 986 l 601 986 l 561 728 l 811 821 l 838 706 l 582 639 l 722 440 l 615 367 l 497 581 l 335 367 l 244 440 l 426 639 l 185 706 l 236 821 l 467 728 z "},"+":{"ha":833,"x_min":99,"x_max":807,"o":"m 113 413 l 394 413 l 424 694 l 554 694 l 525 413 l 807 413 l 793 282 l 511 282 l 482 0 l 351 0 l 381 282 l 99 282 l 113 413 z "},",":{"ha":486,"x_min":108,"x_max":368,"o":"m 108 -278 l 160 208 l 368 208 l 363 150 l 167 -278 l 108 -278 z "},"-":{"ha":608,"x_min":128,"x_max":556,"o":"m 128 303 l 142 424 l 556 424 l 542 303 l 128 303 z "},".":{"ha":486,"x_min":139,"x_max":368,"o":"m 139 0 l 160 208 l 368 208 l 347 0 l 139 0 z "},"/":{"ha":536,"x_min":38,"x_max":599,"o":"m 38 -28 l 474 1000 l 599 1000 l 163 -28 l 38 -28 z "},":":{"ha":486,"x_min":139,"x_max":419,"o":"m 139 0 l 160 208 l 368 208 l 347 0 l 139 0 m 189 486 l 211 694 l 419 694 l 397 486 l 189 486 z "},";":{"ha":486,"x_min":108,"x_max":419,"o":"m 189 486 l 211 694 l 419 694 l 397 486 l 189 486 m 108 -278 l 160 208 l 368 208 l 363 150 l 167 -278 l 108 -278 z "},"<":{"ha":903,"x_min":111,"x_max":850,"o":"m 850 696 l 836 565 l 254 349 l 254 346 l 790 129 l 776 -1 l 111 276 l 126 418 l 850 696 z "},"=":{"ha":944,"x_min":138,"x_max":879,"o":"m 846 254 l 832 124 l 138 124 l 151 254 l 846 254 m 879 571 l 865 440 l 171 440 l 185 571 l 879 571 z "},">":{"ha":903,"x_min":124,"x_max":863,"o":"m 183 565 l 197 696 l 863 418 l 847 276 l 124 -1 l 138 129 l 721 346 l 721 349 l 183 565 z "},"?":{"ha":806,"x_min":204,"x_max":776,"o":"m 469 543 l 439 372 l 328 372 l 335 575 l 506 668 l 611 668 l 635 889 l 357 889 l 343 764 l 204 764 l 221 921 l 392 1014 l 625 1014 l 776 921 l 747 636 l 576 543 l 469 543 m 240 0 l 261 208 l 469 208 l 449 0 l 240 0 z "},"@":{"ha":1403,"x_min":114,"x_max":1371,"o":"m 1096 -196 l 265 -196 l 114 -103 l 218 886 l 389 979 l 1219 979 l 1371 886 l 1292 144 l 1121 51 l 886 51 l 801 108 l 689 51 l 549 51 l 407 144 l 515 653 l 696 746 l 836 746 l 922 689 l 1033 746 l 1069 746 l 947 163 l 1169 163 l 1243 868 l 340 868 l 240 -85 l 1107 -85 l 1096 -196 m 644 625 l 549 172 l 814 172 l 910 625 l 644 625 z "},"A":{"ha":922,"x_min":28,"x_max":894,"o":"m 649 972 l 894 0 l 758 0 l 700 231 l 269 231 l 164 0 l 28 0 l 476 972 l 649 972 m 547 835 l 326 356 l 668 356 l 550 835 l 547 835 z "},"B":{"ha":910,"x_min":125,"x_max":876,"o":"m 844 574 l 717 504 l 715 501 l 829 432 l 794 93 l 624 0 l 125 0 l 226 972 l 725 972 l 876 879 l 844 574 m 310 440 l 276 125 l 658 125 l 692 440 l 310 440 m 353 847 l 322 565 l 704 565 l 735 847 l 353 847 z "},"C":{"ha":924,"x_min":133,"x_max":906,"o":"m 699 243 l 838 243 l 821 86 l 650 -7 l 285 -7 l 133 86 l 218 886 l 389 979 l 754 979 l 906 886 l 889 729 l 750 729 l 763 854 l 353 854 l 275 118 l 685 118 l 699 243 z "},"D":{"ha":979,"x_min":125,"x_max":946,"o":"m 864 93 l 693 0 l 125 0 l 226 972 l 794 972 l 946 879 l 864 93 m 353 847 l 276 125 l 728 125 l 804 847 l 353 847 z "},"E":{"ha":749,"x_min":125,"x_max":781,"o":"m 310 438 l 276 125 l 692 125 l 679 0 l 125 0 l 226 972 l 781 972 l 768 847 l 353 847 l 322 563 l 654 563 l 642 438 l 310 438 z "},"F":{"ha":735,"x_min":125,"x_max":794,"o":"m 310 438 l 264 0 l 125 0 l 226 972 l 794 972 l 782 847 l 353 847 l 322 563 l 668 563 l 656 438 l 310 438 z "},"G":{"ha":938,"x_min":133,"x_max":906,"o":"m 551 361 l 564 486 l 863 486 l 821 86 l 650 -7 l 285 -7 l 133 86 l 218 886 l 389 979 l 754 979 l 906 886 l 889 729 l 750 729 l 763 854 l 353 854 l 275 118 l 685 118 l 711 361 l 551 361 z "},"H":{"ha":993,"x_min":125,"x_max":969,"o":"m 310 438 l 264 0 l 125 0 l 226 972 l 365 972 l 322 563 l 788 563 l 831 972 l 969 972 l 868 0 l 729 0 l 775 438 l 310 438 z "},"I":{"ha":389,"x_min":125,"x_max":365,"o":"m 125 0 l 226 972 l 365 972 l 264 0 l 125 0 z "},"J":{"ha":743,"x_min":36,"x_max":719,"o":"m 490 118 l 581 972 l 719 972 l 626 86 l 456 -7 l 188 -7 l 36 86 l 60 313 l 199 313 l 178 118 l 490 118 z "},"K":{"ha":921,"x_min":125,"x_max":964,"o":"m 125 0 l 226 972 l 365 972 l 311 458 l 314 458 l 797 972 l 964 972 l 535 518 l 907 0 l 738 0 l 439 418 l 290 261 l 264 0 l 125 0 z "},"L":{"ha":665,"x_min":125,"x_max":636,"o":"m 125 0 l 226 972 l 365 972 l 276 125 l 636 125 l 624 0 l 125 0 z "},"M":{"ha":1229,"x_min":125,"x_max":1206,"o":"m 972 0 l 1054 792 l 1051 792 l 683 0 l 544 0 l 342 792 l 339 792 l 257 0 l 125 0 l 226 972 l 422 972 l 629 161 l 632 161 l 1010 972 l 1206 972 l 1104 0 l 972 0 z "},"N":{"ha":1021,"x_min":125,"x_max":997,"o":"m 340 735 l 264 0 l 125 0 l 226 972 l 353 972 l 778 238 l 781 238 l 858 972 l 997 972 l 896 0 l 769 0 l 343 735 l 340 735 z "},"O":{"ha":979,"x_min":133,"x_max":947,"o":"m 863 86 l 692 -7 l 285 -7 l 133 86 l 218 886 l 389 979 l 796 979 l 947 886 l 863 86 m 353 854 l 275 118 l 726 118 l 804 854 l 353 854 z "},"P":{"ha":868,"x_min":125,"x_max":863,"o":"m 125 0 l 226 972 l 711 972 l 863 879 l 819 467 l 649 374 l 303 374 l 264 0 l 125 0 m 353 847 l 315 499 l 683 499 l 721 847 l 353 847 z "},"Q":{"ha":979,"x_min":133,"x_max":947,"o":"m 353 854 l 275 118 l 726 118 l 804 854 l 353 854 m 542 -7 l 285 -7 l 133 86 l 218 886 l 389 979 l 796 979 l 947 886 l 863 86 l 692 -7 l 819 -278 l 665 -278 l 542 -7 z "},"R":{"ha":910,"x_min":125,"x_max":876,"o":"m 514 388 l 304 388 l 264 0 l 125 0 l 226 972 l 725 972 l 876 879 l 835 481 l 664 388 l 847 0 l 693 0 l 514 388 m 353 847 l 317 513 l 699 513 l 735 847 l 353 847 z "},"S":{"ha":896,"x_min":119,"x_max":864,"o":"m 178 514 l 218 886 l 389 979 l 713 979 l 864 886 l 849 743 l 710 743 l 721 854 l 353 854 l 322 560 l 668 560 l 819 467 l 779 86 l 608 -7 l 271 -7 l 119 86 l 135 229 l 274 229 l 261 118 l 643 118 l 675 421 l 329 421 l 178 514 z "},"T":{"ha":775,"x_min":131,"x_max":835,"o":"m 546 847 l 457 0 l 318 0 l 407 847 l 131 847 l 143 972 l 835 972 l 822 847 l 546 847 z "},"U":{"ha":979,"x_min":133,"x_max":956,"o":"m 817 972 l 956 972 l 863 86 l 692 -7 l 285 -7 l 133 86 l 226 972 l 365 972 l 276 132 l 728 132 l 817 972 z "},"V":{"ha":922,"x_min":129,"x_max":996,"o":"m 996 972 l 547 0 l 375 0 l 129 972 l 269 972 l 474 143 l 476 143 l 856 972 l 996 972 z "},"W":{"ha":1328,"x_min":143,"x_max":1388,"o":"m 1388 972 l 1036 0 l 871 0 l 746 779 l 743 779 l 457 0 l 292 0 l 143 972 l 278 972 l 392 178 l 394 178 l 688 972 l 843 972 l 968 178 l 971 178 l 1253 972 l 1388 972 z "},"X":{"ha":904,"x_min":42,"x_max":950,"o":"m 42 0 l 426 496 l 157 972 l 313 972 l 515 611 l 794 972 l 950 972 l 579 496 l 863 0 l 707 0 l 490 382 l 197 0 l 42 0 z "},"Y":{"ha":849,"x_min":129,"x_max":922,"o":"m 354 0 l 399 429 l 129 972 l 285 972 l 481 558 l 483 558 l 767 972 l 922 972 l 538 428 l 493 0 l 354 0 z "},"Z":{"ha":813,"x_min":69,"x_max":831,"o":"m 186 847 l 199 972 l 831 972 l 822 889 l 263 128 l 263 125 l 742 125 l 729 0 l 69 0 l 78 83 l 636 844 l 638 847 l 186 847 z "},"[":{"ha":504,"x_min":94,"x_max":526,"o":"m 332 917 l 217 -181 l 401 -181 l 390 -278 l 94 -278 l 231 1014 l 526 1014 l 517 917 l 332 917 z "},"\\":{"ha":536,"x_min":146,"x_max":490,"o":"m 271 1000 l 490 -28 l 365 -28 l 146 1000 l 271 1000 z "},"]":{"ha":504,"x_min":53,"x_max":485,"o":"m 249 -181 l 364 917 l 179 917 l 189 1014 l 485 1014 l 349 -278 l 53 -278 l 64 -181 l 249 -181 z "},"^":{"ha":836,"x_min":124,"x_max":821,"o":"m 272 528 l 124 528 l 449 972 l 590 972 l 821 528 l 672 528 l 508 851 l 507 851 l 272 528 z "},"_":{"ha":850,"x_min":-57,"x_max":860,"o":"m 860 -161 l 847 -278 l -57 -278 l -44 -161 l 860 -161 z "},"`":{"ha":694,"x_min":361,"x_max":654,"o":"m 542 997 l 654 819 l 543 819 l 361 997 l 542 997 z "},"a":{"ha":799,"x_min":119,"x_max":761,"o":"m 306 581 l 257 114 l 564 114 l 613 581 l 306 581 m 761 701 l 686 -7 l 650 -7 l 557 50 l 453 -7 l 271 -7 l 119 86 l 175 608 l 346 701 l 528 701 l 619 644 l 725 701 l 761 701 z "},"b":{"ha":826,"x_min":110,"x_max":779,"o":"m 418 701 l 628 701 l 779 608 l 724 86 l 553 -7 l 343 -7 l 250 50 l 146 -7 l 110 -7 l 217 1014 l 351 1014 l 313 644 l 418 701 m 306 581 l 257 114 l 592 114 l 640 581 l 306 581 z "},"c":{"ha":715,"x_min":121,"x_max":704,"o":"m 306 574 l 258 121 l 644 121 l 632 0 l 272 0 l 121 93 l 174 601 l 344 694 l 704 694 l 692 574 l 306 574 z "},"d":{"ha":826,"x_min":119,"x_max":821,"o":"m 346 701 l 556 701 l 647 644 l 686 1014 l 821 1014 l 714 -7 l 613 -7 l 585 50 l 481 -7 l 271 -7 l 119 86 l 175 608 l 346 701 m 592 114 l 640 581 l 306 581 l 257 114 l 592 114 z "},"e":{"ha":771,"x_min":121,"x_max":724,"o":"m 672 121 l 660 0 l 272 0 l 121 93 l 175 608 l 346 701 l 572 701 l 724 608 l 690 300 l 276 300 l 258 121 l 672 121 m 306 581 l 289 421 l 568 421 l 585 581 l 306 581 z "},"f":{"ha":540,"x_min":115,"x_max":590,"o":"m 115 574 l 128 694 l 256 694 l 279 921 l 450 1014 l 590 1014 l 578 893 l 411 893 l 390 694 l 557 694 l 544 574 l 378 574 l 318 0 l 183 0 l 243 574 l 115 574 z "},"g":{"ha":813,"x_min":122,"x_max":775,"o":"m 739 701 l 775 701 l 682 -185 l 510 -278 l 150 -278 l 164 -157 l 550 -157 l 574 72 l 469 15 l 274 15 l 122 108 l 175 608 l 346 701 l 542 701 l 633 644 l 739 701 m 260 136 l 581 136 l 626 581 l 306 581 l 260 136 z "},"h":{"ha":826,"x_min":111,"x_max":779,"o":"m 246 0 l 111 0 l 217 1014 l 351 1014 l 313 644 l 418 701 l 628 701 l 779 608 l 715 0 l 581 0 l 640 581 l 306 581 l 246 0 z "},"i":{"ha":357,"x_min":111,"x_max":358,"o":"m 318 694 l 246 0 l 111 0 l 183 694 l 318 694 m 194 865 l 210 1014 l 358 1014 l 343 865 l 194 865 z "},"j":{"ha":357,"x_min":-85,"x_max":358,"o":"m 194 865 l 210 1014 l 358 1014 l 343 865 l 194 865 m 318 694 l 226 -185 l 54 -278 l -85 -278 l -71 -157 l 94 -157 l 183 694 l 318 694 z "},"k":{"ha":738,"x_min":111,"x_max":768,"o":"m 351 1014 l 282 349 l 285 349 l 607 694 l 768 694 l 467 381 l 738 0 l 572 0 l 376 285 l 263 165 l 246 0 l 111 0 l 217 1014 l 351 1014 z "},"l":{"ha":440,"x_min":121,"x_max":425,"o":"m 272 0 l 121 93 l 217 1014 l 351 1014 l 258 121 l 425 121 l 413 0 l 272 0 z "},"m":{"ha":1157,"x_min":111,"x_max":1110,"o":"m 1110 608 l 1046 0 l 911 0 l 971 581 l 706 581 l 646 0 l 511 0 l 571 581 l 306 581 l 246 0 l 111 0 l 185 701 l 286 701 l 313 644 l 418 701 l 558 701 l 679 626 l 818 701 l 958 701 l 1110 608 z "},"n":{"ha":813,"x_min":111,"x_max":765,"o":"m 765 608 l 701 0 l 567 0 l 626 581 l 306 581 l 246 0 l 111 0 l 185 701 l 286 701 l 313 644 l 418 701 l 614 701 l 765 608 z "},"o":{"ha":813,"x_min":119,"x_max":765,"o":"m 710 86 l 539 -7 l 271 -7 l 119 86 l 175 608 l 346 701 l 614 701 l 765 608 l 710 86 m 306 581 l 257 114 l 578 114 l 626 581 l 306 581 z "},"p":{"ha":826,"x_min":81,"x_max":779,"o":"m 553 -7 l 343 -7 l 250 50 l 215 -278 l 81 -278 l 185 701 l 286 701 l 313 644 l 418 701 l 628 701 l 779 608 l 724 86 l 553 -7 m 306 581 l 257 114 l 592 114 l 640 581 l 306 581 z "},"q":{"ha":826,"x_min":119,"x_max":789,"o":"m 481 -7 l 271 -7 l 119 86 l 175 608 l 346 701 l 556 701 l 647 644 l 753 701 l 789 701 l 685 -278 l 550 -278 l 585 50 l 481 -7 m 592 114 l 640 581 l 306 581 l 257 114 l 592 114 z "},"r":{"ha":540,"x_min":111,"x_max":571,"o":"m 558 574 l 306 574 l 246 0 l 111 0 l 183 694 l 285 694 l 313 638 l 417 694 l 571 694 l 558 574 z "},"s":{"ha":744,"x_min":111,"x_max":692,"o":"m 667 319 l 643 93 l 472 0 l 111 0 l 124 121 l 511 121 l 529 292 l 303 292 l 151 385 l 174 601 l 344 694 l 692 694 l 679 574 l 306 574 l 289 413 l 515 413 l 667 319 z "},"t":{"ha":568,"x_min":115,"x_max":557,"o":"m 115 574 l 128 694 l 256 694 l 268 811 l 411 889 l 390 694 l 557 694 l 544 574 l 378 574 l 331 121 l 497 121 l 485 0 l 344 0 l 193 93 l 243 574 l 115 574 z "},"u":{"ha":813,"x_min":119,"x_max":774,"o":"m 119 86 l 183 694 l 318 694 l 257 114 l 578 114 l 639 694 l 774 694 l 700 -7 l 599 -7 l 571 50 l 467 -7 l 271 -7 l 119 86 z "},"v":{"ha":732,"x_min":100,"x_max":776,"o":"m 232 694 l 376 128 l 379 128 l 644 694 l 776 694 l 447 0 l 285 0 l 100 694 l 232 694 z "},"w":{"ha":1051,"x_min":114,"x_max":1082,"o":"m 676 0 l 582 531 l 579 531 l 375 0 l 215 0 l 114 694 l 239 694 l 314 151 l 317 151 l 526 694 l 669 694 l 765 151 l 768 151 l 957 694 l 1082 694 l 836 0 l 676 0 z "},"x":{"ha":694,"x_min":28,"x_max":731,"o":"m 28 0 l 313 354 l 108 694 l 258 694 l 394 456 l 581 694 l 731 694 l 453 354 l 667 0 l 521 0 l 374 254 l 174 0 l 28 0 z "},"y":{"ha":721,"x_min":100,"x_max":765,"o":"m 144 -278 l 299 32 l 100 694 l 235 694 l 381 200 l 383 200 l 631 694 l 765 694 l 276 -278 l 144 -278 z "},"z":{"ha":647,"x_min":56,"x_max":650,"o":"m 64 92 l 465 571 l 465 574 l 129 574 l 142 694 l 650 694 l 640 603 l 240 124 l 240 121 l 590 121 l 578 0 l 56 0 l 64 92 z "},"{":{"ha":553,"x_min":89,"x_max":575,"o":"m 317 313 l 265 -181 l 450 -181 l 439 -278 l 304 -278 l 154 -185 l 207 319 l 89 319 l 99 417 l 217 417 l 269 921 l 440 1014 l 575 1014 l 565 917 l 381 917 l 329 424 l 229 369 l 229 367 l 317 313 z "},"|":{"ha":458,"x_min":136,"x_max":397,"o":"m 136 -278 l 272 1014 l 397 1014 l 261 -278 l 136 -278 z "},"}":{"ha":553,"x_min":53,"x_max":540,"o":"m 249 -181 l 300 313 l 399 367 l 399 369 l 313 424 l 364 917 l 179 917 l 189 1014 l 324 1014 l 475 921 l 422 417 l 540 417 l 531 319 l 413 319 l 360 -185 l 188 -278 l 53 -278 l 64 -181 l 249 -181 z "},"~":{"ha":947,"x_min":124,"x_max":901,"o":"m 389 375 l 257 375 l 244 261 l 124 261 l 139 403 l 310 496 l 453 496 l 636 382 l 768 382 l 781 496 l 901 496 l 886 354 l 715 261 l 572 261 l 389 375 z "}," ":{"ha":361,"x_min":0,"x_max":0,"o":""},"¡":{"ha":486,"x_min":117,"x_max":419,"o":"m 189 486 l 211 694 l 419 694 l 397 486 l 189 486 m 117 -319 l 221 322 l 332 322 l 300 -319 l 117 -319 z "},"¢":{"ha":715,"x_min":121,"x_max":704,"o":"m 576 694 l 704 694 l 692 574 l 306 574 l 258 121 l 644 121 l 632 0 l 504 0 l 486 -164 l 353 -164 l 371 0 l 272 0 l 121 93 l 174 601 l 344 694 l 443 694 l 460 858 l 593 858 l 576 694 z "},"£":{"ha":892,"x_min":97,"x_max":847,"o":"m 547 507 l 536 404 l 343 404 l 314 125 l 696 125 l 708 250 l 847 250 l 832 93 l 661 0 l 163 0 l 204 404 l 97 404 l 108 507 l 215 507 l 256 886 l 426 979 l 694 979 l 846 886 l 829 729 l 690 729 l 703 854 l 390 854 l 354 507 l 547 507 z "},"¥":{"ha":904,"x_min":128,"x_max":950,"o":"m 150 421 l 161 524 l 379 524 l 157 972 l 313 972 l 508 558 l 511 558 l 794 972 l 950 972 l 632 524 l 850 524 l 839 421 l 564 421 l 553 308 l 828 308 l 817 206 l 542 206 l 521 0 l 382 0 l 403 206 l 128 206 l 139 308 l 414 308 l 425 421 l 150 421 z "},"¦":{"ha":458,"x_min":136,"x_max":397,"o":"m 136 -278 l 196 281 l 321 281 l 261 -278 l 136 -278 m 214 456 l 272 1014 l 397 1014 l 339 456 l 214 456 z "},"§":{"ha":907,"x_min":106,"x_max":875,"o":"m 642 226 l 667 475 l 351 475 l 326 226 l 642 226 m 213 467 l 340 536 l 340 539 l 228 608 l 257 886 l 428 979 l 724 979 l 875 886 l 860 743 l 721 743 l 732 854 l 392 854 l 365 600 l 658 600 l 810 507 l 781 235 l 653 165 l 653 163 l 767 93 l 738 -185 l 565 -278 l 256 -278 l 106 -185 l 119 -42 l 258 -42 l 247 -153 l 601 -153 l 628 101 l 335 101 l 183 194 l 213 467 z "},"¨":{"ha":756,"x_min":239,"x_max":704,"o":"m 239 826 l 254 972 l 400 972 l 385 826 l 239 826 m 543 826 l 558 972 l 704 972 l 689 826 l 543 826 z "},"©":{"ha":1167,"x_min":133,"x_max":1135,"o":"m 1050 86 l 879 -7 l 285 -7 l 133 86 l 218 886 l 389 979 l 983 979 l 1135 886 l 1050 86 m 328 882 l 244 90 l 939 90 l 1022 882 l 328 882 m 754 349 l 850 349 l 839 246 l 732 188 l 474 188 l 376 246 l 426 726 l 536 785 l 794 785 l 889 726 l 879 624 l 783 624 l 790 697 l 519 697 l 475 275 l 746 275 l 754 349 z "},"ª":{"ha":826,"x_min":125,"x_max":803,"o":"m 125 0 l 138 121 l 714 121 l 701 0 l 125 0 m 349 851 l 300 385 l 607 385 l 656 851 l 349 851 m 803 972 l 728 264 l 692 264 l 600 321 l 494 264 l 313 264 l 163 357 l 217 879 l 388 972 l 569 972 l 663 915 l 767 972 l 803 972 z "},"«":{"ha":944,"x_min":154,"x_max":892,"o":"m 488 149 l 472 0 l 154 278 l 168 419 l 544 697 l 529 549 l 254 350 l 254 349 l 488 149 m 835 149 l 819 0 l 501 278 l 515 419 l 892 697 l 876 549 l 601 350 l 601 349 l 835 149 z "},"®":{"ha":1167,"x_min":133,"x_max":1135,"o":"m 1050 86 l 879 -7 l 285 -7 l 133 86 l 218 886 l 389 979 l 983 979 l 1135 886 l 1050 86 m 328 882 l 244 90 l 939 90 l 1022 882 l 328 882 m 650 421 l 503 421 l 479 192 l 383 192 l 446 781 l 781 781 l 876 722 l 851 481 l 751 425 l 864 192 l 757 192 l 650 421 m 532 693 l 513 508 l 758 508 l 778 693 l 532 693 z "},"¯":{"ha":832,"x_min":288,"x_max":729,"o":"m 288 833 l 297 926 l 729 926 l 719 833 l 288 833 z "},"°":{"ha":701,"x_min":172,"x_max":683,"o":"m 651 589 l 481 496 l 324 496 l 172 589 l 204 893 l 375 986 l 532 986 l 683 893 l 651 589 m 329 874 l 301 608 l 528 608 l 556 874 l 329 874 z "},"±":{"ha":944,"x_min":125,"x_max":872,"o":"m 178 510 l 460 510 l 479 694 l 610 694 l 590 510 l 872 510 l 858 379 l 576 379 l 557 194 l 426 194 l 446 379 l 164 379 l 178 510 m 832 131 l 819 0 l 125 0 l 138 131 l 832 131 z "},"´":{"ha":694,"x_min":343,"x_max":672,"o":"m 343 819 l 492 997 l 672 997 l 454 819 l 343 819 z "},"µ":{"ha":850,"x_min":111,"x_max":857,"o":"m 622 0 l 594 57 l 490 0 l 268 0 l 246 -219 l 111 -219 l 207 694 l 342 694 l 281 121 l 601 121 l 663 694 l 797 694 l 736 121 l 857 121 l 844 0 l 622 0 z "},"¶":{"ha":951,"x_min":129,"x_max":928,"o":"m 661 -278 l 781 851 l 646 851 l 526 -278 l 392 -278 l 458 346 l 281 346 l 129 439 l 175 879 l 346 972 l 928 972 l 796 -278 l 661 -278 z "},"·":{"ha":486,"x_min":179,"x_max":410,"o":"m 179 394 l 201 603 l 410 603 l 388 394 l 179 394 z "},"¸":{"ha":803,"x_min":264,"x_max":499,"o":"m 374 0 l 449 0 l 413 -51 l 499 -104 l 488 -207 l 361 -276 l 264 -276 l 271 -207 l 408 -207 l 418 -117 l 294 -117 l 374 0 z "},"º":{"ha":840,"x_min":125,"x_max":808,"o":"m 753 364 l 582 271 l 314 271 l 163 364 l 218 886 l 389 979 l 657 979 l 808 886 l 753 364 m 349 858 l 300 392 l 621 392 l 669 858 l 349 858 m 125 0 l 138 121 l 728 121 l 715 0 l 125 0 z "},"»":{"ha":944,"x_min":125,"x_max":863,"o":"m 472 0 l 488 149 l 763 349 l 763 350 l 529 549 l 544 697 l 863 419 l 849 278 l 472 0 m 125 0 l 140 149 l 415 349 l 415 350 l 182 549 l 197 697 l 515 419 l 501 278 l 125 0 z "},"¿":{"ha":806,"x_min":100,"x_max":672,"o":"m 408 151 l 439 322 l 550 322 l 543 119 l 371 26 l 265 26 l 243 -194 l 521 -194 l 533 -69 l 672 -69 l 656 -226 l 485 -319 l 251 -319 l 100 -226 l 131 58 l 301 151 l 408 151 m 638 694 l 615 486 l 407 486 l 429 694 l 638 694 z "},"À":{"ha":922,"x_min":28,"x_max":894,"o":"m 649 972 l 894 0 l 758 0 l 700 231 l 269 231 l 164 0 l 28 0 l 476 972 l 649 972 m 547 835 l 326 356 l 668 356 l 550 835 l 547 835 m 546 1261 l 658 1083 l 547 1083 l 365 1261 l 546 1261 z "},"Á":{"ha":922,"x_min":28,"x_max":894,"o":"m 649 972 l 894 0 l 758 0 l 700 231 l 269 231 l 164 0 l 28 0 l 476 972 l 649 972 m 547 835 l 326 356 l 668 356 l 550 835 l 547 835 m 426 1083 l 575 1261 l 756 1261 l 538 1083 l 426 1083 z "},"Â":{"ha":922,"x_min":28,"x_max":894,"o":"m 649 972 l 894 0 l 758 0 l 700 231 l 269 231 l 164 0 l 28 0 l 476 972 l 649 972 m 547 835 l 326 356 l 668 356 l 550 835 l 547 835 m 490 1275 l 643 1275 l 764 1083 l 660 1083 l 558 1194 l 436 1083 l 332 1083 l 490 1275 z "},"Ã":{"ha":922,"x_min":28,"x_max":894,"o":"m 649 972 l 894 0 l 758 0 l 700 231 l 269 231 l 164 0 l 28 0 l 476 972 l 649 972 m 547 835 l 326 356 l 668 356 l 550 835 l 547 835 m 443 1190 l 440 1190 l 428 1076 l 333 1076 l 347 1207 l 486 1283 l 671 1169 l 674 1169 l 686 1283 l 781 1283 l 767 1153 l 628 1076 l 443 1190 z "},"Ä":{"ha":922,"x_min":28,"x_max":894,"o":"m 649 972 l 894 0 l 758 0 l 700 231 l 269 231 l 164 0 l 28 0 l 476 972 l 649 972 m 547 835 l 326 356 l 668 356 l 550 835 l 547 835 m 322 1090 l 338 1236 l 483 1236 l 468 1090 l 322 1090 m 626 1090 l 642 1236 l 788 1236 l 772 1090 l 626 1090 z "},"Å":{"ha":922,"x_min":28,"x_max":894,"o":"m 758 947 l 667 897 l 894 0 l 758 0 l 700 231 l 269 231 l 164 0 l 28 0 l 443 899 l 363 947 l 388 1182 l 508 1247 l 676 1247 l 783 1182 l 758 947 m 547 835 l 326 356 l 668 356 l 550 835 l 547 835 m 489 1157 l 469 972 l 657 972 l 676 1157 l 489 1157 z "},"Æ":{"ha":1344,"x_min":-28,"x_max":1376,"o":"m 906 438 l 872 125 l 1288 125 l 1275 0 l 721 0 l 744 231 l 319 231 l 136 0 l -28 0 l 754 972 l 1376 972 l 1364 847 l 949 847 l 918 563 l 1250 563 l 1238 438 l 906 438 m 806 835 l 419 356 l 757 356 l 808 835 l 806 835 z "},"Ç":{"ha":924,"x_min":133,"x_max":906,"o":"m 699 243 l 838 243 l 821 86 l 650 -7 l 503 -7 l 472 -51 l 558 -104 l 547 -207 l 421 -276 l 324 -276 l 331 -207 l 468 -207 l 478 -117 l 354 -117 l 428 -7 l 285 -7 l 133 86 l 218 886 l 389 979 l 754 979 l 906 886 l 889 729 l 750 729 l 763 854 l 353 854 l 275 118 l 685 118 l 699 243 z "},"È":{"ha":749,"x_min":125,"x_max":781,"o":"m 310 438 l 276 125 l 692 125 l 679 0 l 125 0 l 226 972 l 781 972 l 768 847 l 353 847 l 322 563 l 654 563 l 642 438 l 310 438 m 458 1261 l 571 1083 l 460 1083 l 278 1261 l 458 1261 z "},"É":{"ha":749,"x_min":125,"x_max":781,"o":"m 310 438 l 276 125 l 692 125 l 679 0 l 125 0 l 226 972 l 781 972 l 768 847 l 353 847 l 322 563 l 654 563 l 642 438 l 310 438 m 399 1083 l 547 1261 l 728 1261 l 510 1083 l 399 1083 z "},"Ê":{"ha":749,"x_min":125,"x_max":781,"o":"m 310 438 l 276 125 l 692 125 l 679 0 l 125 0 l 226 972 l 781 972 l 768 847 l 353 847 l 322 563 l 654 563 l 642 438 l 310 438 m 433 1275 l 586 1275 l 707 1083 l 603 1083 l 501 1194 l 379 1083 l 275 1083 l 433 1275 z "},"Ë":{"ha":749,"x_min":125,"x_max":781,"o":"m 310 438 l 276 125 l 692 125 l 679 0 l 125 0 l 226 972 l 781 972 l 768 847 l 353 847 l 322 563 l 654 563 l 642 438 l 310 438 m 267 1090 l 282 1236 l 428 1236 l 413 1090 l 267 1090 m 571 1090 l 586 1236 l 732 1236 l 717 1090 l 571 1090 z "},"Ì":{"ha":389,"x_min":92,"x_max":385,"o":"m 125 0 l 226 972 l 365 972 l 264 0 l 125 0 m 272 1261 l 385 1083 l 274 1083 l 92 1261 l 272 1261 z "},"Í":{"ha":389,"x_min":125,"x_max":506,"o":"m 125 0 l 226 972 l 365 972 l 264 0 l 125 0 m 176 1083 l 325 1261 l 506 1261 l 288 1083 l 176 1083 z "},"Î":{"ha":389,"x_min":65,"x_max":497,"o":"m 125 0 l 226 972 l 365 972 l 264 0 l 125 0 m 224 1275 l 376 1275 l 497 1083 l 393 1083 l 292 1194 l 169 1083 l 65 1083 l 224 1275 z "},"Ï":{"ha":389,"x_min":56,"x_max":521,"o":"m 125 0 l 226 972 l 365 972 l 264 0 l 125 0 m 56 1090 l 71 1236 l 217 1236 l 201 1090 l 56 1090 m 360 1090 l 375 1236 l 521 1236 l 506 1090 l 360 1090 z "},"Ð":{"ha":979,"x_min":69,"x_max":946,"o":"m 69 404 l 81 507 l 178 507 l 226 972 l 794 972 l 946 879 l 864 93 l 693 0 l 125 0 l 167 404 l 69 404 m 353 847 l 317 507 l 464 507 l 453 404 l 306 404 l 276 125 l 728 125 l 804 847 l 353 847 z "},"Ñ":{"ha":1021,"x_min":125,"x_max":997,"o":"m 340 735 l 264 0 l 125 0 l 226 972 l 353 972 l 778 238 l 781 238 l 858 972 l 997 972 l 896 0 l 769 0 l 343 735 l 340 735 m 481 1190 l 478 1190 l 465 1076 l 371 1076 l 385 1207 l 524 1283 l 708 1169 l 711 1169 l 724 1283 l 818 1283 l 804 1153 l 665 1076 l 481 1190 z "},"Ò":{"ha":979,"x_min":133,"x_max":947,"o":"m 863 86 l 692 -7 l 285 -7 l 133 86 l 218 886 l 389 979 l 796 979 l 947 886 l 863 86 m 353 854 l 275 118 l 726 118 l 804 854 l 353 854 m 556 1261 l 668 1083 l 557 1083 l 375 1261 l 556 1261 z "},"Ó":{"ha":979,"x_min":133,"x_max":947,"o":"m 863 86 l 692 -7 l 285 -7 l 133 86 l 218 886 l 389 979 l 796 979 l 947 886 l 863 86 m 353 854 l 275 118 l 726 118 l 804 854 l 353 854 m 472 1083 l 621 1261 l 801 1261 l 583 1083 l 472 1083 z "},"Ô":{"ha":979,"x_min":133,"x_max":947,"o":"m 863 86 l 692 -7 l 285 -7 l 133 86 l 218 886 l 389 979 l 796 979 l 947 886 l 863 86 m 353 854 l 275 118 l 726 118 l 804 854 l 353 854 m 518 1275 l 671 1275 l 792 1083 l 688 1083 l 586 1194 l 464 1083 l 360 1083 l 518 1275 z "},"Õ":{"ha":979,"x_min":133,"x_max":947,"o":"m 863 86 l 692 -7 l 285 -7 l 133 86 l 218 886 l 389 979 l 796 979 l 947 886 l 863 86 m 353 854 l 275 118 l 726 118 l 804 854 l 353 854 m 472 1190 l 469 1190 l 457 1076 l 363 1076 l 376 1207 l 515 1283 l 700 1169 l 703 1169 l 715 1283 l 810 1283 l 796 1153 l 657 1076 l 472 1190 z "},"Ö":{"ha":979,"x_min":133,"x_max":947,"o":"m 863 86 l 692 -7 l 285 -7 l 133 86 l 218 886 l 389 979 l 796 979 l 947 886 l 863 86 m 353 854 l 275 118 l 726 118 l 804 854 l 353 854 m 358 1090 l 374 1236 l 519 1236 l 504 1090 l 358 1090 m 663 1090 l 678 1236 l 824 1236 l 808 1090 l 663 1090 z "},"×":{"ha":847,"x_min":93,"x_max":826,"o":"m 247 688 l 469 439 l 744 688 l 826 596 l 551 347 l 774 99 l 672 7 l 450 256 l 175 7 l 93 99 l 368 347 l 146 596 l 247 688 z "},"Ø":{"ha":979,"x_min":133,"x_max":947,"o":"m 863 86 l 692 -7 l 285 -7 l 133 86 l 218 886 l 389 979 l 796 979 l 947 886 l 863 86 m 353 854 l 285 208 l 749 854 l 353 854 m 331 118 l 726 118 l 794 764 l 331 118 z "},"Ù":{"ha":979,"x_min":133,"x_max":956,"o":"m 817 972 l 956 972 l 863 86 l 692 -7 l 285 -7 l 133 86 l 226 972 l 365 972 l 276 132 l 728 132 l 817 972 m 528 1261 l 640 1083 l 529 1083 l 347 1261 l 528 1261 z "},"Ú":{"ha":979,"x_min":133,"x_max":956,"o":"m 817 972 l 956 972 l 863 86 l 692 -7 l 285 -7 l 133 86 l 226 972 l 365 972 l 276 132 l 728 132 l 817 972 m 496 1083 l 644 1261 l 825 1261 l 607 1083 l 496 1083 z "},"Û":{"ha":979,"x_min":133,"x_max":956,"o":"m 817 972 l 956 972 l 863 86 l 692 -7 l 285 -7 l 133 86 l 226 972 l 365 972 l 276 132 l 728 132 l 817 972 m 518 1275 l 671 1275 l 792 1083 l 688 1083 l 586 1194 l 464 1083 l 360 1083 l 518 1275 z "},"Ü":{"ha":979,"x_min":133,"x_max":956,"o":"m 817 972 l 956 972 l 863 86 l 692 -7 l 285 -7 l 133 86 l 226 972 l 365 972 l 276 132 l 728 132 l 817 972 m 350 1090 l 365 1236 l 511 1236 l 496 1090 l 350 1090 m 654 1090 l 669 1236 l 815 1236 l 800 1090 l 654 1090 z "},"Ý":{"ha":849,"x_min":129,"x_max":922,"o":"m 354 0 l 399 429 l 129 972 l 285 972 l 481 558 l 483 558 l 767 972 l 922 972 l 538 428 l 493 0 l 354 0 m 440 1083 l 589 1261 l 769 1261 l 551 1083 l 440 1083 z "},"Þ":{"ha":882,"x_min":125,"x_max":846,"o":"m 125 0 l 231 1014 l 369 1014 l 349 815 l 694 815 l 846 722 l 803 310 l 632 217 l 286 217 l 264 0 l 125 0 m 336 690 l 299 342 l 667 342 l 704 690 l 336 690 z "},"ß":{"ha":924,"x_min":88,"x_max":863,"o":"m 88 440 l 100 565 l 225 565 l 258 879 l 429 972 l 711 972 l 863 879 l 831 574 l 721 514 l 857 432 l 822 93 l 651 0 l 407 0 l 419 125 l 686 125 l 719 440 l 453 440 l 465 565 l 690 565 l 721 847 l 394 847 l 275 -278 l 136 -278 l 213 440 l 88 440 z "},"à":{"ha":799,"x_min":119,"x_max":761,"o":"m 306 581 l 257 114 l 564 114 l 613 581 l 306 581 m 761 701 l 686 -7 l 650 -7 l 557 50 l 453 -7 l 271 -7 l 119 86 l 175 608 l 346 701 l 528 701 l 619 644 l 725 701 l 761 701 m 500 997 l 613 819 l 501 819 l 319 997 l 500 997 z "},"á":{"ha":799,"x_min":119,"x_max":761,"o":"m 306 581 l 257 114 l 564 114 l 613 581 l 306 581 m 761 701 l 686 -7 l 650 -7 l 557 50 l 453 -7 l 271 -7 l 119 86 l 175 608 l 346 701 l 528 701 l 619 644 l 725 701 l 761 701 m 371 819 l 519 997 l 700 997 l 482 819 l 371 819 z "},"â":{"ha":799,"x_min":119,"x_max":761,"o":"m 306 581 l 257 114 l 564 114 l 613 581 l 306 581 m 761 701 l 686 -7 l 650 -7 l 557 50 l 453 -7 l 271 -7 l 119 86 l 175 608 l 346 701 l 528 701 l 619 644 l 725 701 l 761 701 m 425 1011 l 578 1011 l 699 819 l 594 819 l 493 931 l 371 819 l 267 819 l 425 1011 z "},"ã":{"ha":799,"x_min":119,"x_max":761,"o":"m 306 581 l 257 114 l 564 114 l 613 581 l 306 581 m 761 701 l 686 -7 l 650 -7 l 557 50 l 453 -7 l 271 -7 l 119 86 l 175 608 l 346 701 l 528 701 l 619 644 l 725 701 l 761 701 m 375 926 l 372 926 l 360 813 l 265 813 l 279 943 l 418 1019 l 603 906 l 606 906 l 618 1019 l 713 1019 l 699 889 l 560 813 l 375 926 z "},"ä":{"ha":799,"x_min":119,"x_max":761,"o":"m 306 581 l 257 114 l 564 114 l 613 581 l 306 581 m 761 701 l 686 -7 l 650 -7 l 557 50 l 453 -7 l 271 -7 l 119 86 l 175 608 l 346 701 l 528 701 l 619 644 l 725 701 l 761 701 m 267 826 l 282 972 l 428 972 l 413 826 l 267 826 m 571 826 l 586 972 l 732 972 l 717 826 l 571 826 z "},"å":{"ha":799,"x_min":119,"x_max":761,"o":"m 306 581 l 257 114 l 564 114 l 613 581 l 306 581 m 761 701 l 686 -7 l 650 -7 l 557 50 l 453 -7 l 271 -7 l 119 86 l 175 608 l 346 701 l 528 701 l 619 644 l 725 701 l 761 701 m 678 857 l 557 792 l 389 792 l 282 857 l 307 1092 l 428 1157 l 596 1157 l 703 1092 l 678 857 m 408 1067 l 389 882 l 576 882 l 596 1067 l 408 1067 z "},"æ":{"ha":1157,"x_min":92,"x_max":1110,"o":"m 1058 121 l 1046 0 l 658 0 l 540 72 l 397 -7 l 243 -7 l 92 86 l 115 313 l 286 406 l 539 406 l 557 574 l 213 574 l 225 694 l 543 694 l 625 643 l 732 701 l 958 701 l 1110 608 l 1076 300 l 663 300 l 644 121 l 1058 121 m 247 285 l 229 114 l 508 114 l 526 285 l 247 285 m 692 581 l 675 421 l 954 421 l 971 581 l 692 581 z "},"ç":{"ha":715,"x_min":121,"x_max":704,"o":"m 374 0 l 272 0 l 121 93 l 174 601 l 344 694 l 704 694 l 692 574 l 306 574 l 258 121 l 644 121 l 632 0 l 449 0 l 413 -51 l 499 -104 l 488 -207 l 361 -276 l 264 -276 l 271 -207 l 408 -207 l 418 -117 l 294 -117 l 374 0 z "},"è":{"ha":771,"x_min":121,"x_max":724,"o":"m 672 121 l 660 0 l 272 0 l 121 93 l 175 608 l 346 701 l 572 701 l 724 608 l 690 300 l 276 300 l 258 121 l 672 121 m 306 581 l 289 421 l 568 421 l 585 581 l 306 581 m 500 997 l 613 819 l 501 819 l 319 997 l 500 997 z "},"é":{"ha":771,"x_min":121,"x_max":724,"o":"m 672 121 l 660 0 l 272 0 l 121 93 l 175 608 l 346 701 l 572 701 l 724 608 l 690 300 l 276 300 l 258 121 l 672 121 m 306 581 l 289 421 l 568 421 l 585 581 l 306 581 m 343 819 l 492 997 l 672 997 l 454 819 l 343 819 z "},"ê":{"ha":771,"x_min":121,"x_max":724,"o":"m 672 121 l 660 0 l 272 0 l 121 93 l 175 608 l 346 701 l 572 701 l 724 608 l 690 300 l 276 300 l 258 121 l 672 121 m 306 581 l 289 421 l 568 421 l 585 581 l 306 581 m 421 1011 l 574 1011 l 694 819 l 590 819 l 489 931 l 367 819 l 263 819 l 421 1011 z "},"ë":{"ha":771,"x_min":121,"x_max":724,"o":"m 672 121 l 660 0 l 272 0 l 121 93 l 175 608 l 346 701 l 572 701 l 724 608 l 690 300 l 276 300 l 258 121 l 672 121 m 306 581 l 289 421 l 568 421 l 585 581 l 306 581 m 243 826 l 258 972 l 404 972 l 389 826 l 243 826 m 547 826 l 563 972 l 708 972 l 693 826 l 547 826 z "},"ì":{"ha":357,"x_min":67,"x_max":360,"o":"m 318 694 l 246 0 l 111 0 l 183 694 l 318 694 m 247 997 l 360 819 l 249 819 l 67 997 l 247 997 z "},"í":{"ha":357,"x_min":111,"x_max":499,"o":"m 318 694 l 246 0 l 111 0 l 183 694 l 318 694 m 169 819 l 318 997 l 499 997 l 281 819 l 169 819 z "},"î":{"ha":357,"x_min":49,"x_max":481,"o":"m 318 694 l 246 0 l 111 0 l 183 694 l 318 694 m 207 1011 l 360 1011 l 481 819 l 376 819 l 275 931 l 153 819 l 49 819 l 207 1011 z "},"ï":{"ha":357,"x_min":40,"x_max":506,"o":"m 318 694 l 246 0 l 111 0 l 183 694 l 318 694 m 40 826 l 56 972 l 201 972 l 186 826 l 40 826 m 344 826 l 360 972 l 506 972 l 490 826 l 344 826 z "},"ð":{"ha":882,"x_min":135,"x_max":936,"o":"m 543 676 l 553 779 l 700 779 l 708 854 l 376 854 l 390 979 l 700 979 l 851 886 l 839 779 l 936 779 l 926 676 l 829 676 l 767 86 l 596 -7 l 286 -7 l 135 86 l 179 504 l 350 597 l 583 597 l 675 540 l 690 676 l 543 676 m 631 118 l 668 472 l 314 472 l 276 118 l 631 118 z "},"ñ":{"ha":813,"x_min":111,"x_max":765,"o":"m 765 608 l 701 0 l 567 0 l 626 581 l 306 581 l 246 0 l 111 0 l 185 701 l 286 701 l 313 644 l 418 701 l 614 701 l 765 608 m 388 926 l 385 926 l 372 813 l 278 813 l 292 943 l 431 1019 l 615 906 l 618 906 l 631 1019 l 725 1019 l 711 889 l 572 813 l 388 926 z "},"ò":{"ha":813,"x_min":119,"x_max":765,"o":"m 710 86 l 539 -7 l 271 -7 l 119 86 l 175 608 l 346 701 l 614 701 l 765 608 l 710 86 m 306 581 l 257 114 l 578 114 l 626 581 l 306 581 m 510 997 l 622 819 l 511 819 l 329 997 l 510 997 z "},"ó":{"ha":813,"x_min":119,"x_max":765,"o":"m 710 86 l 539 -7 l 271 -7 l 119 86 l 175 608 l 346 701 l 614 701 l 765 608 l 710 86 m 306 581 l 257 114 l 578 114 l 626 581 l 306 581 m 389 819 l 538 997 l 718 997 l 500 819 l 389 819 z "},"ô":{"ha":813,"x_min":119,"x_max":765,"o":"m 710 86 l 539 -7 l 271 -7 l 119 86 l 175 608 l 346 701 l 614 701 l 765 608 l 710 86 m 306 581 l 257 114 l 578 114 l 626 581 l 306 581 m 439 1011 l 592 1011 l 713 819 l 608 819 l 507 931 l 385 819 l 281 819 l 439 1011 z "},"õ":{"ha":813,"x_min":119,"x_max":765,"o":"m 710 86 l 539 -7 l 271 -7 l 119 86 l 175 608 l 346 701 l 614 701 l 765 608 l 710 86 m 306 581 l 257 114 l 578 114 l 626 581 l 306 581 m 393 926 l 390 926 l 378 813 l 283 813 l 297 943 l 436 1019 l 621 906 l 624 906 l 636 1019 l 731 1019 l 717 889 l 578 813 l 393 926 z "},"ö":{"ha":813,"x_min":119,"x_max":765,"o":"m 710 86 l 539 -7 l 271 -7 l 119 86 l 175 608 l 346 701 l 614 701 l 765 608 l 710 86 m 306 581 l 257 114 l 578 114 l 626 581 l 306 581 m 268 826 l 283 972 l 429 972 l 414 826 l 268 826 m 572 826 l 588 972 l 733 972 l 718 826 l 572 826 z "},"÷":{"ha":833,"x_min":99,"x_max":807,"o":"m 807 413 l 793 282 l 99 282 l 113 413 l 807 413 m 324 -14 l 343 167 l 524 167 l 504 -14 l 324 -14 m 381 528 l 400 708 l 581 708 l 561 528 l 381 528 z "},"ø":{"ha":813,"x_min":119,"x_max":765,"o":"m 710 86 l 539 -7 l 271 -7 l 119 86 l 175 608 l 346 701 l 614 701 l 765 608 l 710 86 m 306 581 l 265 194 l 571 581 l 306 581 m 313 114 l 578 114 l 618 500 l 313 114 z "},"ù":{"ha":813,"x_min":119,"x_max":774,"o":"m 119 86 l 183 694 l 318 694 l 257 114 l 578 114 l 639 694 l 774 694 l 700 -7 l 599 -7 l 571 50 l 467 -7 l 271 -7 l 119 86 m 486 997 l 599 819 l 488 819 l 306 997 l 486 997 z "},"ú":{"ha":813,"x_min":119,"x_max":774,"o":"m 119 86 l 183 694 l 318 694 l 257 114 l 578 114 l 639 694 l 774 694 l 700 -7 l 599 -7 l 571 50 l 467 -7 l 271 -7 l 119 86 m 413 819 l 561 997 l 742 997 l 524 819 l 413 819 z "},"û":{"ha":813,"x_min":119,"x_max":774,"o":"m 119 86 l 183 694 l 318 694 l 257 114 l 578 114 l 639 694 l 774 694 l 700 -7 l 599 -7 l 571 50 l 467 -7 l 271 -7 l 119 86 m 436 1011 l 589 1011 l 710 819 l 606 819 l 504 931 l 382 819 l 278 819 l 436 1011 z "},"ü":{"ha":813,"x_min":119,"x_max":774,"o":"m 119 86 l 183 694 l 318 694 l 257 114 l 578 114 l 639 694 l 774 694 l 700 -7 l 599 -7 l 571 50 l 467 -7 l 271 -7 l 119 86 m 267 826 l 282 972 l 428 972 l 413 826 l 267 826 m 571 826 l 586 972 l 732 972 l 717 826 l 571 826 z "},"ý":{"ha":721,"x_min":100,"x_max":765,"o":"m 144 -278 l 299 32 l 100 694 l 235 694 l 381 200 l 383 200 l 631 694 l 765 694 l 276 -278 l 144 -278 m 357 819 l 506 997 l 686 997 l 468 819 l 357 819 z "},"þ":{"ha":826,"x_min":81,"x_max":779,"o":"m 217 1014 l 351 1014 l 313 644 l 418 701 l 628 701 l 779 608 l 724 86 l 553 -7 l 343 -7 l 250 50 l 215 -278 l 81 -278 l 217 1014 m 306 581 l 257 114 l 592 114 l 640 581 l 306 581 z "},"ÿ":{"ha":721,"x_min":100,"x_max":765,"o":"m 144 -278 l 299 32 l 100 694 l 235 694 l 381 200 l 383 200 l 631 694 l 765 694 l 276 -278 l 144 -278 m 222 826 l 238 972 l 383 972 l 368 826 l 222 826 m 526 826 l 542 972 l 688 972 l 672 826 l 526 826 z "},"ħ":{"ha":826,"x_min":99,"x_max":779,"o":"m 246 0 l 111 0 l 196 813 l 99 813 l 110 915 l 206 915 l 217 1014 l 351 1014 l 340 915 l 549 915 l 538 813 l 329 813 l 313 644 l 418 701 l 628 701 l 779 608 l 715 0 l 581 0 l 640 581 l 306 581 l 246 0 z "},"Ĩ":{"ha":389,"x_min":94,"x_max":542,"o":"m 125 0 l 226 972 l 365 972 l 264 0 l 125 0 m 204 1204 l 201 1204 l 189 1090 l 94 1090 l 108 1221 l 247 1297 l 432 1183 l 435 1183 l 447 1297 l 542 1297 l 528 1167 l 389 1090 l 204 1204 z "},"ĩ":{"ha":357,"x_min":51,"x_max":499,"o":"m 318 694 l 246 0 l 111 0 l 183 694 l 318 694 m 161 926 l 158 926 l 146 813 l 51 813 l 65 943 l 204 1019 l 389 906 l 392 906 l 404 1019 l 499 1019 l 485 889 l 346 813 l 161 926 z "},"ı":{"ha":357,"x_min":111,"x_max":318,"o":"m 318 694 l 246 0 l 111 0 l 183 694 l 318 694 z "},"Ĳ":{"ha":1132,"x_min":125,"x_max":1108,"o":"m 125 0 l 226 972 l 365 972 l 264 0 l 125 0 m 879 118 l 969 972 l 1108 972 l 1015 86 l 844 -7 l 576 -7 l 425 86 l 449 313 l 588 313 l 567 118 l 879 118 z "},"ĳ":{"ha":714,"x_min":111,"x_max":715,"o":"m 318 694 l 246 0 l 111 0 l 183 694 l 318 694 m 194 865 l 210 1014 l 358 1014 l 343 865 l 194 865 m 551 865 l 567 1014 l 715 1014 l 700 865 l 551 865 m 675 694 l 583 -185 l 411 -278 l 272 -278 l 286 -157 l 451 -157 l 540 694 l 675 694 z "},"Ĵ":{"ha":743,"x_min":36,"x_max":851,"o":"m 490 118 l 581 972 l 719 972 l 626 86 l 456 -7 l 188 -7 l 36 86 l 60 313 l 199 313 l 178 118 l 490 118 m 578 1289 l 731 1289 l 851 1097 l 747 1097 l 646 1208 l 524 1097 l 419 1097 l 578 1289 z "},"ĵ":{"ha":357,"x_min":-56,"x_max":481,"o":"m 246 694 l 246 -185 l 85 -278 l -56 -278 l -56 -157 l 111 -157 l 111 694 l 246 694 m 207 1011 l 360 1011 l 481 819 l 376 819 l 275 931 l 153 819 l 49 819 l 207 1011 z "},"ķ":{"ha":738,"x_min":111,"x_max":768,"o":"m 351 1014 l 282 349 l 285 349 l 607 694 l 768 694 l 467 381 l 738 0 l 572 0 l 376 285 l 263 165 l 246 0 l 111 0 l 217 1014 l 351 1014 m 269 -465 l 311 -76 l 478 -76 l 472 -124 l 317 -465 l 269 -465 z "},"ĸ":{"ha":738,"x_min":111,"x_max":768,"o":"m 318 694 l 282 349 l 285 349 l 607 694 l 768 694 l 467 381 l 738 0 l 572 0 l 376 285 l 263 165 l 246 0 l 111 0 l 183 694 l 318 694 z "},"Ŀ":{"ha":665,"x_min":125,"x_max":636,"o":"m 125 0 l 226 972 l 365 972 l 276 125 l 636 125 l 624 0 l 125 0 m 428 322 l 444 489 l 611 489 l 594 322 l 428 322 z "},"ŀ":{"ha":556,"x_min":121,"x_max":585,"o":"m 272 0 l 121 93 l 217 1014 l 351 1014 l 258 121 l 425 121 l 413 0 l 272 0 m 401 332 l 418 499 l 585 499 l 568 332 l 401 332 z "},"Ł":{"ha":665,"x_min":69,"x_max":636,"o":"m 69 404 l 81 507 l 179 528 l 226 972 l 365 972 l 322 558 l 472 590 l 461 488 l 311 456 l 276 125 l 636 125 l 624 0 l 125 0 l 169 425 l 69 404 z "},"ł":{"ha":440,"x_min":69,"x_max":447,"o":"m 69 404 l 81 507 l 167 529 l 217 1014 l 351 1014 l 304 567 l 447 604 l 436 501 l 294 464 l 258 121 l 425 121 l 413 0 l 272 0 l 121 93 l 156 426 l 69 404 z "},"Ń":{"ha":1021,"x_min":125,"x_max":997,"o":"m 340 735 l 264 0 l 125 0 l 226 972 l 353 972 l 778 238 l 781 238 l 858 972 l 997 972 l 896 0 l 769 0 l 343 735 l 340 735 m 517 1097 l 665 1275 l 846 1275 l 628 1097 l 517 1097 z "},"ń":{"ha":813,"x_min":111,"x_max":765,"o":"m 765 608 l 701 0 l 567 0 l 626 581 l 306 581 l 246 0 l 111 0 l 185 701 l 286 701 l 313 644 l 418 701 l 614 701 l 765 608 m 365 819 l 514 997 l 694 997 l 476 819 l 365 819 z "},"Œ":{"ha":1339,"x_min":135,"x_max":1371,"o":"m 900 438 l 867 125 l 1282 125 l 1269 0 l 286 0 l 135 93 l 217 879 l 388 972 l 1371 972 l 1358 847 l 943 847 l 913 563 l 1244 563 l 1232 438 l 900 438 m 353 847 l 276 125 l 728 125 l 804 847 l 353 847 z "},"œ":{"ha":1226,"x_min":119,"x_max":1179,"o":"m 1128 121 l 1115 0 l 728 0 l 644 50 l 539 -7 l 271 -7 l 119 86 l 175 608 l 346 701 l 614 701 l 700 647 l 801 701 l 1028 701 l 1179 608 l 1146 300 l 732 300 l 714 121 l 1128 121 m 306 581 l 257 114 l 578 114 l 626 581 l 306 581 m 761 581 l 744 421 l 1024 421 l 1040 581 l 761 581 z "},"Ŕ":{"ha":910,"x_min":125,"x_max":876,"o":"m 514 388 l 304 388 l 264 0 l 125 0 l 226 972 l 725 972 l 876 879 l 835 481 l 664 388 l 847 0 l 693 0 l 514 388 m 353 847 l 317 513 l 699 513 l 735 847 l 353 847 m 385 1097 l 533 1275 l 714 1275 l 496 1097 l 385 1097 z "},"Ŗ":{"ha":910,"x_min":125,"x_max":876,"o":"m 514 388 l 304 388 l 264 0 l 125 0 l 226 972 l 725 972 l 876 879 l 835 481 l 664 388 l 847 0 l 693 0 l 514 388 m 353 847 l 317 513 l 699 513 l 735 847 l 353 847 m 328 -465 l 369 -76 l 536 -76 l 531 -124 l 375 -465 l 328 -465 z "},"ŗ":{"ha":540,"x_min":111,"x_max":571,"o":"m 558 574 l 306 574 l 246 0 l 111 0 l 183 694 l 285 694 l 313 638 l 417 694 l 571 694 l 558 574 m 157 -465 l 199 -76 l 365 -76 l 360 -124 l 204 -465 l 157 -465 z "},"Ř":{"ha":910,"x_min":125,"x_max":876,"o":"m 514 388 l 304 388 l 264 0 l 125 0 l 226 972 l 725 972 l 876 879 l 835 481 l 664 388 l 847 0 l 693 0 l 514 388 m 353 847 l 317 513 l 699 513 l 735 847 l 353 847 m 617 1097 l 464 1097 l 344 1289 l 449 1289 l 549 1178 l 672 1289 l 776 1289 l 617 1097 z "},"ř":{"ha":540,"x_min":111,"x_max":592,"o":"m 558 574 l 306 574 l 246 0 l 111 0 l 183 694 l 285 694 l 313 638 l 417 694 l 571 694 l 558 574 m 432 819 l 279 819 l 160 1011 l 264 1011 l 364 900 l 488 1011 l 592 1011 l 432 819 z "},"Š":{"ha":896,"x_min":119,"x_max":864,"o":"m 178 514 l 218 886 l 389 979 l 713 979 l 864 886 l 849 743 l 710 743 l 721 854 l 353 854 l 322 560 l 668 560 l 819 467 l 779 86 l 608 -7 l 271 -7 l 119 86 l 135 229 l 274 229 l 261 118 l 643 118 l 675 421 l 329 421 l 178 514 m 614 1083 l 461 1083 l 342 1275 l 446 1275 l 546 1164 l 669 1275 l 774 1275 l 614 1083 z "},"š":{"ha":744,"x_min":111,"x_max":694,"o":"m 667 319 l 643 93 l 472 0 l 111 0 l 124 121 l 511 121 l 529 292 l 303 292 l 151 385 l 174 601 l 344 694 l 692 694 l 679 574 l 306 574 l 289 413 l 515 413 l 667 319 m 535 819 l 382 819 l 263 1011 l 367 1011 l 467 900 l 590 1011 l 694 1011 l 535 819 z "},"Ÿ":{"ha":849,"x_min":129,"x_max":922,"o":"m 354 0 l 399 429 l 129 972 l 285 972 l 481 558 l 483 558 l 767 972 l 922 972 l 538 428 l 493 0 l 354 0 m 285 1090 l 300 1236 l 446 1236 l 431 1090 l 285 1090 m 589 1090 l 604 1236 l 750 1236 l 735 1090 l 589 1090 z "},"Ž":{"ha":813,"x_min":69,"x_max":831,"o":"m 186 847 l 199 972 l 831 972 l 822 889 l 263 128 l 263 125 l 742 125 l 729 0 l 69 0 l 78 83 l 636 844 l 638 847 l 186 847 m 564 1083 l 411 1083 l 292 1275 l 396 1275 l 496 1164 l 619 1275 l 724 1275 l 564 1083 z "},"ž":{"ha":647,"x_min":56,"x_max":650,"o":"m 64 92 l 465 571 l 465 574 l 129 574 l 142 694 l 650 694 l 640 603 l 240 124 l 240 121 l 590 121 l 578 0 l 56 0 l 64 92 m 475 819 l 322 819 l 203 1011 l 307 1011 l 407 900 l 531 1011 l 635 1011 l 475 819 z "},"ƒ":{"ha":540,"x_min":-12,"x_max":590,"o":"m 378 574 l 299 -185 l 126 -278 l -12 -278 l 0 -157 l 167 -157 l 243 574 l 115 574 l 128 694 l 256 694 l 279 921 l 450 1014 l 590 1014 l 578 893 l 411 893 l 390 694 l 557 694 l 544 574 l 378 574 z "},"ˆ":{"ha":738,"x_min":239,"x_max":671,"o":"m 397 1011 l 550 1011 l 671 819 l 567 819 l 465 931 l 343 819 l 239 819 l 397 1011 z "},"ˇ":{"ha":738,"x_min":258,"x_max":690,"o":"m 531 819 l 378 819 l 258 1011 l 363 1011 l 463 900 l 586 1011 l 690 1011 l 531 819 z "},"˘":{"ha":735,"x_min":260,"x_max":672,"o":"m 568 1022 l 672 1022 l 656 871 l 535 806 l 367 806 l 260 871 l 276 1022 l 381 1022 l 367 896 l 554 896 l 568 1022 z "},"˙":{"ha":486,"x_min":225,"x_max":454,"o":"m 225 821 l 246 1029 l 454 1029 l 433 821 l 225 821 z "},"˚":{"ha":735,"x_min":258,"x_max":679,"o":"m 654 857 l 533 792 l 365 792 l 258 857 l 283 1092 l 404 1157 l 572 1157 l 679 1092 l 654 857 m 385 1067 l 365 882 l 553 882 l 572 1067 l 385 1067 z "},"˛":{"ha":722,"x_min":231,"x_max":453,"o":"m 343 0 l 324 -182 l 453 -182 l 443 -275 l 382 -275 l 231 -182 l 250 0 l 343 0 z "},"˜":{"ha":703,"x_min":224,"x_max":671,"o":"m 333 926 l 331 926 l 318 813 l 224 813 l 238 943 l 376 1019 l 561 906 l 564 906 l 576 1019 l 671 1019 l 657 889 l 518 813 l 333 926 z "},"˝":{"ha":694,"x_min":178,"x_max":756,"o":"m 426 819 l 575 997 l 756 997 l 538 819 l 426 819 m 178 819 l 326 997 l 507 997 l 289 819 l 178 819 z "},"–":{"ha":967,"x_min":128,"x_max":914,"o":"m 128 303 l 142 424 l 914 424 l 900 303 l 128 303 z "},"—":{"ha":1353,"x_min":128,"x_max":1300,"o":"m 128 303 l 142 424 l 1300 424 l 1286 303 l 128 303 z "},"‘":{"ha":458,"x_min":179,"x_max":439,"o":"m 439 1014 l 388 528 l 179 528 l 186 586 l 381 1014 l 439 1014 z "},"’":{"ha":458,"x_min":179,"x_max":439,"o":"m 179 528 l 231 1014 l 439 1014 l 433 956 l 238 528 l 179 528 z "},"‚":{"ha":486,"x_min":108,"x_max":368,"o":"m 108 -278 l 160 208 l 368 208 l 363 150 l 167 -278 l 108 -278 z "},"“":{"ha":792,"x_min":179,"x_max":772,"o":"m 772 1014 l 721 528 l 513 528 l 519 586 l 714 1014 l 772 1014 m 439 1014 l 388 528 l 179 528 l 186 586 l 381 1014 l 439 1014 z "},"”":{"ha":792,"x_min":179,"x_max":772,"o":"m 179 528 l 231 1014 l 439 1014 l 433 956 l 238 528 l 179 528 m 513 528 l 564 1014 l 772 1014 l 767 956 l 571 528 l 513 528 z "},"„":{"ha":819,"x_min":108,"x_max":701,"o":"m 108 -278 l 160 208 l 368 208 l 363 150 l 167 -278 l 108 -278 m 442 -278 l 493 208 l 701 208 l 696 150 l 500 -278 l 442 -278 z "},"†":{"ha":810,"x_min":146,"x_max":801,"o":"m 514 617 l 433 -278 l 315 -278 l 424 617 l 146 603 l 158 721 l 433 707 l 451 1015 l 569 1015 l 524 707 l 801 721 l 789 603 l 514 617 z "},"‡":{"ha":810,"x_min":85,"x_max":801,"o":"m 497 369 l 463 121 l 740 135 l 728 17 l 453 31 l 433 -278 l 315 -278 l 363 31 l 85 17 l 97 135 l 372 121 l 388 369 l 424 617 l 146 603 l 158 721 l 433 707 l 451 1015 l 569 1015 l 524 707 l 801 721 l 789 603 l 514 617 l 497 369 z "},"•":{"ha":806,"x_min":171,"x_max":735,"o":"m 699 311 l 528 218 l 322 218 l 171 311 l 207 653 l 378 746 l 583 746 l 735 653 l 699 311 z "},"…":{"ha":1347,"x_min":139,"x_max":1229,"o":"m 139 0 l 160 208 l 368 208 l 347 0 l 139 0 m 569 0 l 590 208 l 799 208 l 778 0 l 569 0 m 1000 0 l 1021 208 l 1229 208 l 1208 0 l 1000 0 z "},"‰":{"ha":1939,"x_min":172,"x_max":1910,"o":"m 1085 986 l 1210 986 l 392 -14 l 267 -14 l 1085 986 m 651 589 l 481 496 l 324 496 l 172 589 l 204 893 l 375 986 l 532 986 l 683 893 l 651 589 m 329 874 l 301 608 l 528 608 l 556 874 l 329 874 m 826 383 l 997 476 l 1154 476 l 1306 383 l 1272 79 l 1101 -14 l 944 -14 l 793 79 l 826 383 m 1149 99 l 1176 364 l 950 364 l 922 99 l 1149 99 m 1431 383 l 1601 476 l 1758 476 l 1910 383 l 1876 79 l 1706 -14 l 1549 -14 l 1397 79 l 1431 383 m 1753 99 l 1781 364 l 1554 364 l 1526 99 l 1753 99 z "},"‹":{"ha":597,"x_min":154,"x_max":544,"o":"m 488 149 l 472 0 l 154 278 l 168 419 l 544 697 l 529 549 l 254 350 l 254 349 l 488 149 z "},"›":{"ha":597,"x_min":125,"x_max":515,"o":"m 125 0 l 140 149 l 415 349 l 415 350 l 182 549 l 197 697 l 515 419 l 501 278 l 125 0 z "},"⁄":{"ha":921,"x_min":11,"x_max":1010,"o":"m 885 986 l 1010 986 l 136 -14 l 11 -14 l 885 986 z "},"€":{"ha":936,"x_min":76,"x_max":918,"o":"m 703 640 l 632 538 l 343 538 l 332 435 l 563 435 l 493 332 l 322 332 l 299 118 l 697 118 l 711 243 l 850 243 l 833 86 l 663 -7 l 308 -7 l 157 86 l 183 332 l 76 332 l 86 435 l 193 435 l 204 538 l 97 538 l 108 640 l 215 640 l 242 886 l 413 979 l 767 979 l 918 886 l 901 729 l 763 729 l 775 854 l 376 854 l 354 640 l 703 640 z "},"™":{"ha":1174,"x_min":189,"x_max":1150,"o":"m 1006 472 l 1042 810 l 1039 810 l 886 472 l 801 472 l 724 810 l 721 810 l 685 472 l 593 472 l 646 972 l 764 972 l 858 604 l 861 604 l 1032 972 l 1150 972 l 1097 472 l 1006 472 m 418 885 l 375 472 l 281 472 l 324 885 l 189 885 l 199 972 l 561 972 l 551 885 l 418 885 z "},"∂":{"ha":882,"x_min":133,"x_max":850,"o":"m 707 854 l 375 854 l 389 979 l 699 979 l 850 886 l 765 86 l 594 -7 l 285 -7 l 133 86 l 178 504 l 349 597 l 582 597 l 674 540 l 707 854 m 629 118 l 667 472 l 313 472 l 275 118 l 629 118 z "},"−":{"ha":833,"x_min":99,"x_max":807,"o":"m 807 413 l 793 282 l 99 282 l 113 413 l 807 413 z "},"∞":{"ha":1236,"x_min":149,"x_max":1176,"o":"m 325 594 l 292 268 l 576 268 l 610 594 l 325 594 m 749 594 l 715 268 l 1000 268 l 1033 594 l 749 594 m 1135 236 l 964 143 l 793 143 l 642 236 l 471 143 l 300 143 l 149 236 l 190 626 l 361 719 l 532 719 l 683 626 l 854 719 l 1025 719 l 1176 626 l 1135 236 z "},"≈":{"ha":1003,"x_min":132,"x_max":944,"o":"m 431 515 l 299 515 l 288 401 l 167 401 l 182 543 l 353 636 l 496 636 l 679 522 l 811 522 l 824 636 l 944 636 l 929 494 l 758 401 l 615 401 l 431 515 m 396 185 l 264 185 l 253 71 l 132 71 l 147 213 l 318 306 l 461 306 l 644 192 l 776 192 l 789 306 l 910 306 l 894 164 l 724 71 l 581 71 l 396 185 z "},"≠":{"ha":944,"x_min":122,"x_max":893,"o":"m 879 571 l 865 440 l 653 440 l 488 254 l 846 254 l 832 124 l 371 124 l 247 -15 l 122 -15 l 246 124 l 138 124 l 151 254 l 363 254 l 528 440 l 171 440 l 185 571 l 644 571 l 768 710 l 893 710 l 769 571 l 879 571 z "},"≤":{"ha":944,"x_min":125,"x_max":892,"o":"m 892 696 l 879 569 l 360 446 l 360 443 l 853 319 l 839 193 l 164 374 l 178 515 l 892 696 m 832 131 l 819 0 l 125 0 l 138 131 l 832 131 z "},"≥":{"ha":944,"x_min":125,"x_max":872,"o":"m 185 569 l 197 696 l 872 515 l 858 374 l 144 193 l 158 319 l 676 443 l 676 446 l 185 569 m 125 0 l 138 131 l 832 131 l 819 0 l 125 0 z "},"":{"ha":743,"x_min":92,"x_max":694,"o":"m 247 285 l 229 114 l 508 114 l 526 285 l 247 285 m 243 -7 l 92 86 l 115 313 l 286 406 l 539 406 l 557 574 l 213 574 l 225 694 l 543 694 l 694 601 l 631 -7 l 594 -7 l 501 50 l 397 -7 l 243 -7 z "},"":{"ha":799,"x_min":63,"x_max":788,"o":"m 246 0 l 118 78 l 132 203 l 236 260 l 143 317 l 174 601 l 344 694 l 788 694 l 782 647 l 649 574 l 728 524 l 708 332 l 538 239 l 271 239 l 258 121 l 567 121 l 718 28 l 694 -192 l 524 -285 l 214 -285 l 63 -192 l 72 -106 l 214 -28 l 200 -167 l 563 -167 l 581 0 l 246 0 m 306 576 l 283 357 l 576 357 l 599 576 l 306 576 z "},"":{"ha":357,"x_min":111,"x_max":351,"o":"m 246 0 l 111 0 l 217 1014 l 351 1014 l 246 0 z "},"":{"ha":357,"x_min":-85,"x_max":318,"o":"m 318 694 l 226 -185 l 54 -278 l -85 -278 l -71 -157 l 94 -157 l 183 694 l 318 694 z "},"":{"ha":694,"x_min":89,"x_max":297,"o":"m 89 -465 l 131 -76 l 297 -76 l 292 -124 l 136 -465 l 89 -465 z "},"":{"ha":1244,"x_min":111,"x_max":1133,"o":"m 903 71 q 621 -12 769 -12 q 260 138 410 -12 q 111 501 111 288 q 172 742 111 636 q 299 849 232 849 q 365 778 365 849 q 324 551 365 732 q 283 368 283 371 q 308 353 283 353 q 387 365 333 353 q 446 389 440 378 q 467 483 446 392 q 500 633 488 575 q 528 823 528 774 q 483 901 528 872 q 371 929 439 929 l 344 926 l 342 931 q 621 1014 472 1014 q 984 864 835 1014 q 1133 500 1133 714 q 1073 259 1133 365 q 946 153 1013 153 q 879 224 879 153 q 920 450 879 269 q 961 632 961 631 q 936 649 961 649 q 858 636 911 649 q 799 613 804 624 q 778 518 799 610 q 744 368 757 426 q 717 178 717 228 q 761 101 717 129 q 874 72 806 72 l 900 74 l 903 71 m 661 325 q 710 542 679 399 q 740 698 740 686 q 716 710 740 710 q 647 700 692 710 q 583 676 601 690 q 535 459 565 603 q 504 303 504 315 q 528 290 504 290 q 597 301 551 290 q 661 325 643 311 z "},"":{"ha":1192,"x_min":111,"x_max":1081,"o":"m 214 149 q 111 488 111 326 q 185 753 111 649 q 388 858 260 858 q 510 838 436 858 q 609 817 583 817 q 706 840 635 817 q 826 864 776 864 q 975 819 910 864 q 1047 750 1017 788 q 953 646 985 696 q 922 516 922 596 q 969 368 922 436 q 1081 281 1017 300 q 994 107 1051 192 q 815 -29 904 -29 q 719 -7 779 -29 q 616 15 660 15 q 514 -8 572 15 q 422 -32 456 -32 q 214 149 315 -32 m 818 1097 q 733 906 818 990 q 673 861 700 872 q 586 844 646 850 q 814 1126 589 1074 q 818 1097 818 1114 z "},"ﬁ":{"ha":883,"x_min":115,"x_max":885,"o":"m 115 574 l 128 694 l 256 694 l 279 921 l 450 1014 l 885 1014 l 872 893 l 411 893 l 390 694 l 585 694 l 572 574 l 378 574 l 318 0 l 183 0 l 243 574 l 115 574 m 844 694 l 772 0 l 638 0 l 710 694 l 844 694 z "},"ﬂ":{"ha":981,"x_min":115,"x_max":965,"o":"m 813 0 l 661 93 l 744 893 l 411 893 l 390 694 l 599 694 l 586 574 l 378 574 l 318 0 l 183 0 l 243 574 l 115 574 l 128 694 l 256 694 l 279 921 l 450 1014 l 892 1014 l 799 121 l 965 121 l 953 0 l 813 0 z "},"ﬃ":{"ha":1438,"x_min":115,"x_max":1439,"o":"m 378 574 l 318 0 l 183 0 l 243 574 l 115 574 l 128 694 l 256 694 l 279 921 l 450 1014 l 646 1014 l 633 893 l 411 893 l 390 694 l 768 694 l 792 921 l 963 1014 l 1439 1014 l 1426 893 l 924 893 l 903 694 l 1125 694 l 1113 574 l 890 574 l 831 0 l 696 0 l 756 574 l 378 574 m 1399 694 l 1326 0 l 1192 0 l 1264 694 l 1399 694 z "},"ﬄ":{"ha":1521,"x_min":115,"x_max":1506,"o":"m 115 574 l 128 694 l 256 694 l 279 921 l 450 1014 l 688 1014 l 675 893 l 411 893 l 390 694 l 796 694 l 819 921 l 990 1014 l 1432 1014 l 1339 121 l 1506 121 l 1493 0 l 1353 0 l 1201 93 l 1285 893 l 951 893 l 931 694 l 1139 694 l 1126 574 l 918 574 l 858 0 l 724 0 l 783 574 l 378 574 l 318 0 l 183 0 l 243 574 l 115 574 z "},"ﬆ":{"ha":1263,"x_min":111,"x_max":1251,"o":"m 306 574 l 289 413 l 515 413 l 667 319 l 643 93 l 472 0 l 111 0 l 124 121 l 511 121 l 529 292 l 303 292 l 151 385 l 174 601 l 344 694 l 950 694 l 963 811 l 1106 889 l 1085 694 l 1251 694 l 1239 574 l 1072 574 l 1025 121 l 1192 121 l 1179 0 l 1039 0 l 888 93 l 938 574 l 306 574 z "},"﬇":{"ha":883,"x_min":115,"x_max":885,"o":"m 115 574 l 128 694 l 256 694 l 279 921 l 450 1014 l 885 1014 l 872 893 l 411 893 l 390 694 l 557 694 l 544 574 l 378 574 l 318 0 l 183 0 l 243 574 l 115 574 m 844 694 l 753 -185 l 581 -278 l 440 -278 l 454 -157 l 621 -157 l 710 694 l 844 694 z "},"﬈":{"ha":1235,"x_min":121,"x_max":1196,"o":"m 306 574 l 258 121 l 644 121 l 632 0 l 272 0 l 121 93 l 174 601 l 344 694 l 894 694 l 907 811 l 1050 889 l 1029 694 l 1196 694 l 1183 574 l 1017 574 l 969 121 l 1136 121 l 1124 0 l 983 0 l 832 93 l 882 574 l 306 574 z "}}}
